# xmcd CD database file
#
# Track frame offsets:
#	150
#	19000
#	31400
#	37825
#	44648
#	57256
#	66215
#	74608
#	81054
#	107583
#	114829
#	129903
#	143079
#	155566
#	165381
#	183504
#	225659
#	231127
#	237535
#	258578
#	276813
#	292668
#	305782
#	318734
#
# Disc length: 4358 seconds
#
# Revision: 0
# Processed by: cddbd v1.5.2PL0 Copyright (c) Steve Scherf et al.
# Submitted via: CDex 1.51
#
DISCID=50110418
DTITLE=Peerie Willie Johnson - Willie's World
DYEAR=2007
DGENRE=Blues
TTITLE0=Nice Work If You Can Get It
TTITLE1=Da North Road - Robertson Crescent
TTITLE2=A Foggy Day In London Town
TTITLE3=Night and Day
TTITLE4=Yesterday
TTITLE5=Stars Fell On Alabama
TTITLE6=Skye Boat Song
TTITLE7=Bye Bye Blues
TTITLE8=The Way You Look Tonight
TTITLE9=Unknown Tune
TTITLE10=Harvest Home - Ragtime Jane
TTITLE11=Where Or When
TTITLE12=They Can't Take That Away From Me
TTITLE13=Can't Help Lovin' That Man Of Mine
TTITLE14=Braes of Auchtertyre - The Marquis Of Huntley's Farewell - The Left-handed Fiddler
TTITLE15=Birks Wirks
TTITLE16=Don't Blame Me
TTITLE17=Forgotten Dreams
TTITLE18=As I Went Down By Fiddichside - Drowsy Maggie
TTITLE19=How Long Has This Been Going On
TTITLE20=Somewhere Over The Rainbow
TTITLE21=Margaret's Waltz
TTITLE22=St. Louis Blues
TTITLE23=Lady Be Good
EXTD=YEAR: 2007
EXTT0=
EXTT1=
EXTT2=
EXTT3=
EXTT4=
EXTT5=
EXTT6=
EXTT7=
EXTT8=
EXTT9=
EXTT10=
EXTT11=
EXTT12=
EXTT13=
EXTT14=
EXTT15=
EXTT16=
EXTT17=
EXTT18=
EXTT19=
EXTT20=
EXTT21=
EXTT22=
EXTT23=
PLAYORDER=
